<svg width="17" height="21" viewBox="0 0 17 21" fill="none" 
	xmlns="http://www.w3.org/2000/svg">
	<path d="M5.69334 14.9067H3.34667C2.88254 14.9067 2.42884 15.0443 2.04293 15.3021C1.65702 15.56 1.35624 15.9265 1.17863 16.3553C1.00102 16.7841 0.954545 17.2559 1.04509 17.7111C1.13564 18.1664 1.35914 18.5845 1.68732 18.9127C2.01551 19.2409 2.43365 19.4644 2.88886 19.5549C3.34407 19.6455 3.8159 19.599 4.2447 19.4214C4.6735 19.2438 5.04 18.943 5.29785 18.5571C5.55571 18.1712 5.69334 17.7175 5.69334 17.2533V4.34667L15.08 2V14.9067C15.08 15.3708 14.9424 15.8245 14.6845 16.2104C14.4267 16.5963 14.0602 16.8971 13.6314 17.0747C13.2026 17.2523 12.7307 17.2988 12.2755 17.2082C11.8203 17.1177 11.4022 16.8942 11.074 16.566C10.7458 16.2378 10.5223 15.8197 10.4318 15.3645C10.3412 14.9093 10.3877 14.4374 10.5653 14.0086C10.7429 13.5798 11.0437 13.2133 11.4296 12.9555C11.8155 12.6976 12.2692 12.56 12.7333 12.56H15.08" stroke="currentColor" stroke-width="2" stroke-miterlimit="10" fill="none"/>
</svg>